HIERARCHY
ROOT Hips
{
    OFFSET 0.0 0.0 0.0
    CHANNELS 6 Xposition Yposition Zposition Zrotation Xrotation Yrotation
    JOINT LeftUpLeg
    {
        OFFSET 12.720798384596787 0.0 0.0
        CHANNELS 3 Zrotation Xrotation Yrotation
        JOINT LeftLeg
        {
            OFFSET 0.0 0.0 -52.685856744923655
            CHANNELS 3 Zrotation Xrotation Yrotation
            JOINT LeftFoot
            {
                OFFSET 0.0 0.0 -43.18626831856538
                CHANNELS 3 Zrotation Xrotation Yrotation
                JOINT LeftToeBase
                {
                    OFFSET 0.0 -11.67410698254159 0.0
                    CHANNELS 3 Zrotation Xrotation Yrotation
                    End Site
                    {
                        OFFSET 0 0 0
                    }
                }
            }
        }
    }
    JOINT RightUpLeg
    {
        OFFSET -12.720798384596787 0.0 0.0
        CHANNELS 3 Zrotation Xrotation Yrotation
        JOINT RightLeg
        {
            OFFSET 0.0 0.0 -52.685856744923655
            CHANNELS 3 Zrotation Xrotation Yrotation
            JOINT RightFoot
            {
                OFFSET 0.0 0.0 -43.18626831856538
                CHANNELS 3 Zrotation Xrotation Yrotation
                JOINT RightToeBase
                {
                    OFFSET 0.0 -11.67410698254159 0.0
                    CHANNELS 3 Zrotation Xrotation Yrotation
                    End Site
                    {
                        OFFSET 0 0 0
                    }
                }
            }
        }
    }
    JOINT Spine
    {
        OFFSET 0.0 0.0 10.432825032501196
        CHANNELS 3 Zrotation Xrotation Yrotation
        JOINT Spine1
        {
            OFFSET 0.0 0.0 10.353803107151661
            CHANNELS 3 Zrotation Xrotation Yrotation
            JOINT Spine2
            {
                OFFSET 0.0 0.0 10.353803107151661
                CHANNELS 3 Zrotation Xrotation Yrotation
                JOINT Spine3
                {
                    OFFSET 0.0 0.0 10.35380310715166
                    CHANNELS 3 Zrotation Xrotation Yrotation
                    JOINT Spine4
                    {
                        OFFSET 0.0 0.0 10.353803107151663
                        CHANNELS 3 Zrotation Xrotation Yrotation
                        JOINT RightShoulder
                        {
                            OFFSET -22.564767137083123 0.0 0.0
                            CHANNELS 3 Zrotation Xrotation Yrotation
                            JOINT RightArm
                            {
                                OFFSET -31.548315739104318 0.0 0.0
                                CHANNELS 3 Zrotation Xrotation Yrotation
                                JOINT RightForeArm
                                {
                                    OFFSET -31.56471014357113 0.0 0.0
                                    CHANNELS 3 Zrotation Xrotation Yrotation
                                    JOINT RightHand
                                    {
                                        OFFSET -9.810339066283056 0.0 0.0
                                        CHANNELS 3 Zrotation Xrotation Yrotation
                                        End Site
                                        {
                                            OFFSET 0 0 0
                                        }
                                    }
                                }
                            }
                        }
                        JOINT LeftShoulder
                        {
                            OFFSET 22.564767137083123 0.0 0.0
                            CHANNELS 3 Zrotation Xrotation Yrotation
                            JOINT LeftArm
                            {
                                OFFSET 31.548315739104318 0.0 0.0
                                CHANNELS 3 Zrotation Xrotation Yrotation
                                JOINT LeftForeArm
                                {
                                    OFFSET 31.56471014357113 0.0 0.0
                                    CHANNELS 3 Zrotation Xrotation Yrotation
                                    JOINT LeftHand
                                    {
                                        OFFSET 9.810339066283056 0.0 0.0
                                        CHANNELS 3 Zrotation Xrotation Yrotation
                                        End Site
                                        {
                                            OFFSET 0 0 0
                                        }
                                    }
                                }
                            }
                        }
                        JOINT Neck
                        {
                            OFFSET 0.0 0.0 10.35380294826282
                            CHANNELS 3 Zrotation Xrotation Yrotation
                            JOINT Head
                            {
                                OFFSET 0.0 0.0 26.53865104321458
                                CHANNELS 3 Zrotation Xrotation Yrotation
                                End Site
                                {
                                    OFFSET 0 0 0
                                }
                            }
                        }
                    }
                }
            }
        }
    }
}
MOTION
Frames: 10
Frame Time: 0.03333333333333333
48.158446168899545 -69.04691383838654 512.3701841354371 32.83667803734511 -69.83047648640552 33.43105031810734 151.96969062497854 -15.099862768083463 66.41630405889178 -130.77520012106524 17.743516799020526 74.6604507048891 141.65197271660685 -6.3611093629270335e-15 83.79316394391911 0.0 0.0 -3.1805546814635168e-15 -9.734997667071971 -22.254243544619435 -76.12317840847315 -175.27100454777633 8.486738750482319 -152.73110408139095 -101.30022930865141 -1.5902773407317584e-14 -76.13228308578188 0.0 0.0 3.975693351829396e-16 0.41046978658102395 -18.187406030803846 0.6600828603965835 0.0 0.0 0.0 0.0 0.0 0.0 0.0 0.0 0.0 0.0 0.0 0.0 137.98562930822297 8.796098506208223 -158.09296357500864 104.4014391537888 3.564296784374952e-15 5.783572451868595e-15 -5.6617632593033555e-15 61.06106554415859 3.339098716319526e-15 -7.951386703658792e-16 0.0 0.0 -156.24758607811913 10.531559302793392 163.95984601248298 -111.68597799585312 -8.835356573281657e-15 -1.6923057871450282e-15 -180.0 -45.08468290147532 -180.0 0.0 0.0 -7.951386703658792e-16 -4.087305165811925 3.63255886968522e-15 -1.4616667052438043e-15 7.951386703658794e-16 0.0 0.0
48.158446168899545 -69.04691383838654 512.3701841354371 32.83667803734511 -69.83047648640552 33.43105031810734 151.96969062497854 -15.099862768083463 66.41630405889178 -130.77520012106524 17.743516799020526 74.6604507048891 141.65197271660685 -6.3611093629270335e-15 83.79316394391911 0.0 0.0 -3.1805546814635168e-15 -9.734997667071971 -22.254243544619435 -76.12317840847315 -175.27100454777633 8.486738750482319 -152.73110408139095 -101.30022930865141 -1.5902773407317584e-14 -76.13228308578188 0.0 0.0 3.975693351829396e-16 0.41046978658102395 -18.187406030803846 0.6600828603965835 0.0 0.0 0.0 0.0 0.0 0.0 0.0 0.0 0.0 0.0 0.0 0.0 137.98562930822297 8.796098506208223 -158.09296357500864 104.4014391537888 3.564296784374952e-15 5.783572451868595e-15 -5.6617632593033555e-15 61.06106554415859 3.339098716319526e-15 -7.951386703658792e-16 0.0 0.0 -156.24758607811913 10.531559302793392 163.95984601248298 -111.68597799585312 -8.835356573281657e-15 -1.6923057871450282e-15 -180.0 -45.08468290147532 -180.0 0.0 0.0 -7.951386703658792e-16 -4.087305165811925 3.63255886968522e-15 -1.4616667052438043e-15 7.951386703658794e-16 0.0 0.0
48.158446168899545 -69.04691383838654 512.3701841354371 32.83667803734511 -69.83047648640552 33.43105031810734 151.96969062497854 -15.099862768083463 66.41630405889178 -130.77520012106524 17.743516799020526 74.6604507048891 141.65197271660685 -6.3611093629270335e-15 83.79316394391911 0.0 0.0 -3.1805546814635168e-15 -9.734997667071971 -22.254243544619435 -76.12317840847315 -175.27100454777633 8.486738750482319 -152.73110408139095 -101.30022930865141 -1.5902773407317584e-14 -76.13228308578188 0.0 0.0 3.975693351829396e-16 0.41046978658102395 -18.187406030803846 0.6600828603965835 0.0 0.0 0.0 0.0 0.0 0.0 0.0 0.0 0.0 0.0 0.0 0.0 137.98562930822297 8.796098506208223 -158.09296357500864 104.4014391537888 3.564296784374952e-15 5.783572451868595e-15 -5.6617632593033555e-15 61.06106554415859 3.339098716319526e-15 -7.951386703658792e-16 0.0 0.0 -156.24758607811913 10.531559302793392 163.95984601248298 -111.68597799585312 -8.835356573281657e-15 -1.6923057871450282e-15 -180.0 -45.08468290147532 -180.0 0.0 0.0 -7.951386703658792e-16 -4.087305165811925 3.63255886968522e-15 -1.4616667052438043e-15 7.951386703658794e-16 0.0 0.0
48.07754237651825 -69.08212473392487 512.3323287963867 32.73202290738292 -69.6407570800187 33.411149032834224 151.88006342084233 -15.106456697504623 66.66038383647019 -130.79023480953876 17.842706330292085 74.81539945920812 140.83352930439696 -3.1805546814635168e-15 83.53739358260782 0.0 0.0 0.0 -9.989090218199625 -22.644435289155048 -76.39743516112938 -175.24569326870892 8.492689881363583 -152.94393179747502 -100.99762840589574 1.5902773407317584e-14 -75.65120490725423 0.0 0.0 3.975693351829396e-16 0.42039012143065424 -18.374042099367713 0.5595106778302504 0.0 0.0 0.0 0.0 0.0 0.0 0.0 0.0 0.0 0.0 0.0 0.0 137.28148461307234 9.626307209943908 -157.8907069748446 105.02185042417055 1.5142036985140623e-14 1.1614306991150839e-14 2.317145700872458e-14 82.64735266125585 -1.1903310498038947e-14 -3.975693351829396e-16 0.0 0.0 -157.1945233770146 10.503766266922753 164.32204529803732 -112.5220401737102 3.5330256630328118e-15 5.289748764494353e-15 180.0 -40.85659830048759 -180.0 0.0 0.0 -1.1927080055488188e-15 -3.6961567154839456 -2.8808784139296276e-15 -9.295512227099702e-17 0.0 0.0 -7.951386703658792e-16
48.04826846122742 -69.09195957183839 512.3259687423706 32.68141829373779 -69.56310953555898 33.347451170105344 151.845561048079 -15.068726743529439 66.71177592947741 -130.88884754950706 17.85549527812055 75.14090789785712 141.22099630775827 6.3611093629270335e-15 84.44404447929857 0.0 0.0 3.1805546814635168e-15 -10.030693920457553 -22.772199074657397 -76.42647218221015 -175.23672326030953 8.499912340854998 -152.97951448708892 -100.92782223034197 1.2722218725854067e-14 -75.61715102672342 0.0 0.0 3.975693351829396e-16 0.4378956098460586 -18.458116832002986 0.5782623544179701 -7.951386703658792e-16 0.0 0.0 -7.951386703658792e-16 0.0 0.0 -7.951386703658792e-16 0.0 0.0 -7.951386703658792e-16 0.0 0.0 136.92215950384525 10.46928248131522 -157.81123831584753 104.93707090350313 -8.91964887073482e-15 1.1693111976864943e-15 4.5022707096810844e-15 84.99884527310152 4.5022707096810844e-15 3.975693351829396e-16 0.0 0.0 -157.29620273015047 10.484107873994011 164.3342670002533 -112.55929967784805 -5.2908972499552145e-15 3.5313055117809215e-15 180.0 -40.30612711623324 180.0 0.0 0.0 -3.9756933518293955e-16 -3.712354039324908 -2.8587904406368596e-15 2.2940214035916706e-15 -7.951386703658792e-16 0.0 0.0
48.014104557037356 -69.10341138839722 512.3198318481445 32.62128540228775 -69.47215717014537 33.27794185090622 151.81080205746255 -15.023427930163248 66.77668588950016 -131.02668350595758 17.863018326304214 75.60005772652002 141.65841756357224 0.0 85.5233839003809 0.0 0.0 -3.1805546814635168e-15 -10.074988925533129 -22.913942120038538 -76.46307839272244 -175.22606301589192 8.509076072232995 -153.01328158308328 -100.84732378926701 -1.2722218725854067e-14 -75.5777970959889 0.0 0.0 -1.5902773407317582e-15 0.4556617792562226 -18.557004170233423 0.5974501652539613 7.951386703658794e-16 -9.939233379573492e-17 6.896728590703373e-34 7.951386703658794e-16 -9.939233379573492e-17 6.896728590703373e-34 7.951386703658794e-16 -9.939233379573492e-17 6.896728590703373e-34 7.951386703658794e-16 -9.939233379573492e-17 6.896728590703373e-34 136.75961245602088 10.795615814793091 -157.77082801280085 104.97651021610147 0.0 0.0 9.792125783198443e-14 87.30600202694396 -9.342203096205822e-14 3.975693351829396e-16 0.0 0.0 -157.48696437280523 10.47309548115059 164.41027774059685 -112.67407288898471 -9.707361883574803e-15 8.375616788645228e-15 180.0 -41.35309185336723 180.0 0.0 0.0 -3.975693351829396e-16 -3.7138449893978587 -1.1547360728723586e-14 -1.1699306998688333e-15 -3.4483642953516864e-34 -4.9696166897867443e-17 -7.951386703658791e-16
47.97544398307801 -69.11630165576935 512.3138586044312 32.54780871134068 -69.36652584415695 33.201689257867706 151.77465053452013 -14.972926010537362 66.8571753833904 -131.24586595178457 17.85296931996026 76.48618513558868 142.4104813742199 -3.1805546814635168e-15 87.27814681198241 0.0 0.0 3.1805546814635168e-15 -10.123474221778098 -23.071245872014796 -76.51097983179008 -175.2157415992686 8.516495122109003 -153.0444136131829 -100.75496459687628 -6.3611093629270335e-15 -75.52256648103577 -1.5902773407317588e-15 5.517382872562698e-33 -3.975693351829397e-16 0.4727309328222368 -18.672542485208872 0.6106201430205881 0.0 0.0 7.951386703658794e-16 0.0 0.0 7.951386703658794e-16 0.0 0.0 7.951386703658794e-16 0.0 0.0 7.951386703658794e-16 136.7286305881404 10.699989221721887 -157.75917346583512 105.07459462200731 2.1472930249867823e-15 7.655957365082758e-15 8.484062699187605e-14 88.46072952722254 -8.259143229321421e-14 0.0 0.0 0.0 -157.7478123197385 10.46699662670667 164.5380991098868 -112.85884988568493 -7.962123454768004e-15 1.1010008064643232e-14 180.0 -43.89252293114826 180.0 -7.951386703658791e-16 8.276074308844047e-33 -1.1927080055488186e-15 -3.690481375657862 -3.0811010689866815e-15 1.4918396121184523e-15 0.0 0.0 0.0
47.935594153404246 -69.1306545495987 512.3077589035034 32.464959663737545 -69.25025369183803 33.12235241002377 151.7259776188203 -14.930144288416267 66.94839160564503 -131.4476831726868 17.85173976984104 77.49292126439337 142.81039510673017 9.54166404439055e-15 88.7298904609044 0.0 0.0 -3.1805546814635168e-15 -10.176341744034655 -23.238576981828647 -76.56670708824623 -175.2077694308476 8.519973671795018 -153.07033254372516 -100.6517309755188 1.2722218725854067e-14 -75.45823097084018 -3.1805546814635164e-15 -2.2069531490250793e-32 7.951386703658791e-16 0.48895866361344137 -18.800589038736124 0.6172960837636771 0.0 0.0 0.0 0.0 0.0 0.0 0.0 0.0 0.0 0.0 0.0 0.0 136.69044143982867 10.559971922813848 -157.7535424188912 105.38167725709863 5.059477381511425e-15 3.855567526719287e-15 179.9999999999999 87.30415604281923 -179.99999999999991 7.951386703658792e-16 0.0 0.0 -158.09568973960288 10.508976872542462 164.7049350077557 -113.11682679597912 8.86327024176647e-15 -9.665051371393137e-15 180.0 -46.946872400584326 180.0 7.951386703658792e-16 -2.758691436281349e-33 -3.975693351829396e-16 -3.6522575724961954 -2.4936038608420737e-16 1.583135105531508e-15 0.0 0.0 0.0
47.89535286426544 -69.1458731174469 512.3020980834962 32.369924531354904 -69.12159663467402 33.03125381603327 151.66710739562623 -14.8873995985775 67.04517457892236 -131.6014202063851 17.866921573542847 78.41047237260817 143.30334720112674 0.0 90.16444920739309 0.0 0.0 3.1805546814635168e-15 -10.22847187292038 -23.416215166859956 -76.62037356088875 -175.21088750381134 8.504422187523614 -153.07236350990053 -100.56031102252446 0.0 -75.39331826747012 0.0 0.0 3.975693351829396e-16 0.5062179040098158 -18.941056638667714 0.6263848886018963 7.951386703658792e-16 0.0 0.0 7.951386703658792e-16 0.0 0.0 7.951386703658792e-16 0.0 0.0 7.951386703658792e-16 0.0 0.0 136.64338552247415 10.349052068708659 -157.75133911587164 105.8598146884966 8.90994395970873e-15 -1.241097614648365e-15 180.0 80.48656652790812 -180.0 -1.5902773407317584e-15 0.0 0.0 -158.49848602655283 10.600361441665838 164.88484142016065 -113.41107494857287 -3.4918803314403186e-15 -5.316999537146701e-15 180.0 -50.50587141730485 -180.0 0.0 0.0 -1.3914926731402886e-15 -3.609850130334806 9.959346319409121e-15 -4.816913626078692e-16 7.951386703658792e-16 0.0 0.0
47.85469129085541 -69.16203918457032 512.2968166351318 32.2582463529895 -68.98031842119345 32.92257970728873 151.60162639359746 -14.839426092203356 67.14704699788305 -131.70761478332028 17.898221284802244 79.22972786127114 143.61303911079824 0.0 91.32019206524554 0.0 0.0 0.0 -10.281655141719613 -23.60714983351125 -76.67488272488076 -175.22358544290586 8.471665898218973 -153.05543898944657 -100.43186082205811 6.3611093629270335e-15 -75.33498374587813 -1.5902773407317584e-15 2.2069531490250793e-32 -1.5902773407317584e-15 0.525071251675855 -19.094677929906613 0.6413330707306903 7.951386703658792e-16 0.0 0.0 7.951386703658792e-16 0.0 0.0 7.951386703658792e-16 0.0 0.0 7.951386703658792e-16 0.0 0.0 136.62516798540884 9.998539619242365 -157.76123223313033 106.30581314325325 -4.613576166505874e-15 -4.450940663284351e-15 -179.99999999999997 76.7560524527502 179.99999999999997 0.0 0.0 0.0 -158.91446731680506 10.684723391574108 165.06961692289585 -113.72523304604071 -1.2391750605135698e-14 4.291304502173028e-15 -180.0 -54.55380264342023 -180.0 0.0 0.0 2.1866313435061676e-15 -3.5680479691139158 -1.1449332284276345e-14 4.3891010350808224e-16 7.951386703658792e-16 0.0 0.0
